<svg xmlns="http://www.w3.org/2000/svg" xml:space="preserve" viewBox="0 0 139.7 50"><path fill="#37474F" d="M0 0v50h50V0H0zm38 14.6c-.4.7-.8 1.4-1.3 2-.5.7-.9 1.2-1.3 1.7s-.7.7-.9.7H23.3l-2.1 7.1 3.5-4.2h8.4L27.9 28h-7.2l-2.6 8.9h-7l7.1-24.1H39c-.3.6-.6 1.1-1 1.8z"/><g fill="#272727"><path d="M63.1 27.5V6.1h14.4v3.7h-9.8v5h9.2v3.7h-9.2v9h-4.6zM82.6 27.5V6.1h4.7v21.4h-4.7zM107.9 6.1h4.4v21.4h-3.5L98.1 13.9v13.6h-4.4V6.1h3.5l10.7 13.6V6.1zM135.1 27.5l-2-4.7h-10l-2 4.7h-4.7l9.8-21.4h3.8l9.8 21.4h-4.7zm-10.5-8.3h6.9l-3.5-8-3.4 8z"/></g><g fill="#999"><path d="M62.9 43.6v-7.8h4.8v.8h-3.9v2.7h3.7v.7h-3.7v3.6h-.9zM69.1 43.6v-7.8h.9v7.8h-.9zM78 43.6h-1L76 41c-.1-.3-.3-.5-.5-.6s-.5-.2-.9-.2h-2v3.4h-.9v-7.8H75c.8 0 1.5.2 1.9.6.5.4.7.9.7 1.6 0 .5-.1.9-.4 1.3-.3.3-.7.6-1.2.7.2 0 .4.1.6.3s.3.4.4.7l1 2.6zm-3.1-4.2c1.2 0 1.8-.5 1.8-1.5 0-.5-.1-.8-.4-1.1-.3-.2-.7-.4-1.4-.4h-2.1v2.9h2.1zM79 42.7l.3-.7c.4.3.8.6 1.2.7s.9.2 1.4.2c.6 0 1.1-.1 1.5-.4.3-.2.5-.6.5-1 0-.3-.1-.5-.2-.6s-.4-.3-.6-.4c-.3-.1-.6-.2-1.1-.3-.6-.1-1.1-.3-1.5-.4-.4-.2-.7-.4-.9-.7s-.4-.7-.4-1.1.1-.8.4-1.2c.2-.3.6-.6 1-.8s.9-.3 1.5-.3c.5 0 1 .1 1.5.3s.9.4 1.2.7l-.4.7c-.4-.3-.7-.5-1.1-.7-.4-.1-.8-.2-1.2-.2-.6 0-1.1.1-1.4.4s-.5.6-.5 1.1c0 .4.2.7.5.9s.8.4 1.4.5c.7.2 1.2.3 1.6.4s.7.3 1 .6.4.6.4 1.1c0 .4-.1.8-.4 1.2-.2.3-.6.6-1 .8s-.9.3-1.5.3c-1.5-.1-2.4-.4-3.2-1.1zM88.1 43.6v-7.1h-2.7v-.8h6.4v.8H89v7.1h-.9zM97.1 43.2c-.5-.3-1-.8-1.3-1.4s-.4-1.3-.4-2.1.1-1.5.4-2.1c.3-.6.7-1.1 1.3-1.4.5-.3 1.2-.5 1.9-.5.5 0 1 .1 1.5.2s.8.4 1.2.7l-.3.7c-.4-.3-.7-.6-1.1-.7s-.8-.2-1.2-.2c-.9 0-1.5.3-2 .8-.5.6-.7 1.3-.7 2.4 0 1 .2 1.8.7 2.4s1.1.8 2 .8c.4 0 .8-.1 1.2-.2s.7-.4 1.1-.7l.3.7c-.3.3-.7.6-1.2.7s-.9.2-1.5.2c-.8.2-1.4 0-1.9-.3zM108.9 43.6l-.9-2h-4l-.9 2h-.9l3.4-7.8h.8l3.4 7.8h-.9zm-4.6-2.8h3.5l-1.7-4-1.8 4zM111 35.8h3.1c.8 0 1.4.2 1.9.6s.7.9.7 1.6c0 .7-.2 1.2-.7 1.6s-1.1.6-1.9.6h-2.2v3.4h-.9v-7.8zm3.1 3.6c.6 0 1-.1 1.3-.4.3-.2.4-.6.4-1.1s-.1-.8-.4-1.1c-.3-.2-.7-.4-1.3-.4H112v2.9h2.1zM118.2 43.6v-7.8h.9v7.8h-.9zM122.9 43.6v-7.1h-2.7v-.8h6.4v.8h-2.7v7.1h-1zM132.7 43.6l-.9-2h-4.1l-.9 2h-.9l3.4-7.8h.8l3.4 7.8h-.8zm-4.6-2.8h3.5l-1.7-4-1.8 4zM134.8 43.6v-7.8h.9v7.1h3.9v.8h-4.8z"/></g></svg>